<?xml version="1.0" encoding="UTF-8"?>
<svg xmlns="http://www.w3.org/2000/svg" xmlns:xlink="http://www.w3.org/1999/xlink" width="80" height="80" viewBox="0 0 80 80" version="1.1">
<g id="surface1">
<path style=" stroke:none;fill-rule:evenodd;fill:rgb(25.882353%,52.156863%,95.686275%);fill-opacity:1;" d="M 76.800781 40.871094 C 76.800781 38.152344 76.554688 35.539062 76.101562 33.03125 L 40 33.03125 L 40 47.859375 L 60.628906 47.859375 C 59.742188 52.648438 57.039062 56.710938 52.980469 59.429688 L 52.980469 69.046875 L 65.371094 69.046875 C 72.617188 62.371094 76.800781 52.546875 76.800781 40.871094 Z M 76.800781 40.871094 "/>
<path style=" stroke:none;fill-rule:evenodd;fill:rgb(20.392157%,65.882353%,32.54902%);fill-opacity:1;" d="M 40 78.332031 C 50.351562 78.332031 59.027344 74.898438 65.371094 69.046875 L 52.980469 59.425781 C 49.546875 61.726562 45.15625 63.085938 40 63.085938 C 30.015625 63.085938 21.566406 56.34375 18.550781 47.28125 L 5.742188 47.28125 L 5.742188 57.214844 C 12.050781 69.742188 25.015625 78.332031 40 78.332031 Z M 40 78.332031 "/>
<path style=" stroke:none;fill-rule:evenodd;fill:rgb(98.431373%,73.72549%,1.960784%);fill-opacity:1;" d="M 18.550781 47.285156 C 17.785156 44.984375 17.347656 42.527344 17.347656 40 C 17.347656 37.472656 17.785156 35.015625 18.550781 32.71875 L 18.550781 22.785156 L 5.742188 22.785156 C 3.148438 27.960938 1.667969 33.816406 1.667969 40 C 1.667969 46.1875 3.148438 52.039062 5.742188 57.214844 Z M 18.550781 47.285156 "/>
<path style=" stroke:none;fill-rule:evenodd;fill:rgb(91.764706%,26.27451%,20.784314%);fill-opacity:1;" d="M 40 16.914062 C 45.628906 16.914062 50.679688 18.847656 54.652344 22.644531 L 65.648438 11.652344 C 59.007812 5.464844 50.332031 1.667969 40 1.667969 C 25.015625 1.667969 12.050781 10.257812 5.742188 22.785156 L 18.550781 32.714844 C 21.566406 23.65625 30.015625 16.914062 40 16.914062 Z M 40 16.914062 "/>
</g>
</svg>
