<?xml version="1.0" encoding="UTF-8"?>
<!DOCTYPE svg PUBLIC "-//W3C//DTD SVG 1.1//EN" "http://www.w3.org/Graphics/SVG/1.1/DTD/svg11.dtd">
<svg xmlns="http://www.w3.org/2000/svg" version="1.1" width="68px" height="69px" style="shape-rendering:geometricPrecision; text-rendering:geometricPrecision; image-rendering:optimizeQuality; fill-rule:evenodd; clip-rule:evenodd" xmlns:xlink="http://www.w3.org/1999/xlink">
<g><path style="opacity:0.996" fill="#fbe700" d="M 1.5,-0.5 C 22.8333,-0.5 44.1667,-0.5 65.5,-0.5C 65.8333,0.5 66.5,1.16667 67.5,1.5C 67.5,23.1667 67.5,44.8333 67.5,66.5C 67.1667,66.5 66.8333,66.5 66.5,66.5C 44.5,67.8333 22.5,67.8333 0.5,66.5C 0.166667,66.5 -0.166667,66.5 -0.5,66.5C -0.5,44.8333 -0.5,23.1667 -0.5,1.5C 0.5,1.16667 1.16667,0.5 1.5,-0.5 Z"/></g>
<g><path style="opacity:1" fill="#3e201d" d="M 24.5,9.5 C 34.5537,8.12898 43.887,9.96231 52.5,15C 60.9696,22.3559 62.803,31.1892 58,41.5C 49.7008,50.0474 39.5341,53.8807 27.5,53C 24.3372,55.4157 21.0039,57.5823 17.5,59.5C 17.1667,59 16.8333,58.5 16.5,58C 17.2446,55.5217 17.9112,53.0217 18.5,50.5C 14.5361,47.3673 11.0361,43.7006 8,39.5C 4.31908,29.6941 6.48575,21.5274 14.5,15C 17.7667,12.8703 21.1,11.037 24.5,9.5 Z"/></g>
<g><path style="opacity:1" fill="#ead504" d="M 12.5,24.5 C 16.1667,24.5 19.8333,24.5 23.5,24.5C 23.5,25.5 23.5,26.5 23.5,27.5C 22.1667,27.5 20.8333,27.5 19.5,27.5C 19.8226,31.226 19.4892,34.8927 18.5,38.5C 17.914,38.2907 17.414,37.9574 17,37.5C 16.5017,34.1832 16.335,30.8499 16.5,27.5C 14.0274,27.9118 12.6941,26.9118 12.5,24.5 Z"/></g>
<g><path style="opacity:1" fill="#ebd604" d="M 26.5,24.5 C 29.0495,24.5608 30.5495,25.8941 31,28.5C 32.7228,31.7723 33.2228,35.1056 32.5,38.5C 29.2865,34.5866 26.1198,34.5866 23,38.5C 22.3076,37.9747 21.8076,37.3081 21.5,36.5C 22.7837,32.3088 24.4504,28.3088 26.5,24.5 Z"/></g>
<g><path style="opacity:1" fill="#e6d105" d="M 34.5,24.5 C 35.5,24.5 36.5,24.5 37.5,24.5C 37.5,28.1667 37.5,31.8333 37.5,35.5C 39.1667,35.5 40.8333,35.5 42.5,35.5C 42.5,36.5 42.5,37.5 42.5,38.5C 39.8806,38.7683 37.3806,38.435 35,37.5C 34.501,33.1794 34.3343,28.8461 34.5,24.5 Z"/></g>
<g><path style="opacity:1" fill="#edd805" d="M 43.5,24.5 C 44.5,24.5 45.5,24.5 46.5,24.5C 46.3398,26.1992 46.5065,27.8659 47,29.5C 48.6884,27.8116 50.3551,26.1449 52,24.5C 52.5,24.8333 53,25.1667 53.5,25.5C 52.8763,27.754 51.543,29.4206 49.5,30.5C 50.9652,32.5994 52.2985,34.7661 53.5,37C 53.1501,38.2575 52.4835,38.5908 51.5,38C 49.6411,36.4422 48.1411,34.6089 47,32.5C 46.5045,34.4727 46.3379,36.4727 46.5,38.5C 45.5,38.5 44.5,38.5 43.5,38.5C 43.5,33.8333 43.5,29.1667 43.5,24.5 Z"/></g>
<g><path style="opacity:1" fill="#7a5e1c" d="M 27.5,28.5 C 28.339,29.6412 29.0057,30.9745 29.5,32.5C 28.675,33.3857 27.675,33.719 26.5,33.5C 26.366,31.7085 26.6993,30.0418 27.5,28.5 Z"/></g>
<g><path style="opacity:0.096" fill="#020200" d="M 0.5,66.5 C 22.5,67.8333 44.5,67.8333 66.5,66.5C 66.1667,67.1667 65.8333,67.8333 65.5,68.5C 44.1667,68.5 22.8333,68.5 1.5,68.5C 1.16667,67.8333 0.833333,67.1667 0.5,66.5 Z"/></g>
</svg>
