<?xml version="1.0" encoding="UTF-8"?>
<svg xmlns="http://www.w3.org/2000/svg" xmlns:xlink="http://www.w3.org/1999/xlink" width="80" height="80" viewBox="0 0 80 80" version="1.1">
<g id="surface1">
<path style=" stroke:none;fill-rule:nonzero;fill:rgb(99.607843%,89.803922%,0%);fill-opacity:1;" d="M 80 40 C 80 62.089844 62.089844 80 40 80 C 17.910156 80 0 62.089844 0 40 C 0 17.910156 17.910156 0 40 0 C 62.089844 0 80 17.910156 80 40 Z M 80 40 "/>
<path style=" stroke:none;fill-rule:nonzero;fill:rgb(22.352941%,12.54902%,12.54902%);fill-opacity:1;" d="M 40.117188 19.304688 C 27.671875 19.304688 17.632812 27.335938 17.632812 37.082031 C 17.632812 43.40625 21.808594 48.949219 28.074219 52.109375 L 25.953125 60.027344 C 25.914062 60.144531 25.90625 60.273438 25.933594 60.394531 C 25.964844 60.519531 26.023438 60.628906 26.113281 60.71875 C 26.242188 60.832031 26.40625 60.894531 26.578125 60.894531 C 26.722656 60.882812 26.855469 60.828125 26.964844 60.734375 L 36.085938 54.585938 C 37.429688 54.769531 38.789062 54.867188 40.148438 54.875 C 52.578125 54.875 62.628906 46.84375 62.628906 37.082031 C 62.628906 27.316406 52.542969 19.304688 40.117188 19.304688 Z M 40.117188 19.304688 "/>
<path style=" stroke:none;fill-rule:nonzero;fill:rgb(99.607843%,89.803922%,0%);fill-opacity:1;" d="M 25.503906 34.269531 L 23.046875 34.269531 C 22.742188 34.28125 22.441406 34.203125 22.179688 34.046875 C 22.0625 33.972656 21.960938 33.878906 21.886719 33.765625 C 21.808594 33.652344 21.753906 33.523438 21.730469 33.386719 C 21.722656 33.300781 21.722656 33.214844 21.730469 33.132812 C 21.722656 32.972656 21.753906 32.8125 21.820312 32.667969 C 21.886719 32.519531 21.988281 32.394531 22.113281 32.296875 C 22.394531 32.09375 22.730469 31.984375 23.078125 31.992188 L 30.480469 31.992188 C 30.789062 31.980469 31.089844 32.0625 31.347656 32.230469 C 31.464844 32.300781 31.570312 32.394531 31.644531 32.511719 C 31.722656 32.625 31.777344 32.753906 31.796875 32.890625 C 31.804688 32.96875 31.804688 33.050781 31.796875 33.132812 C 31.804688 33.292969 31.773438 33.453125 31.707031 33.601562 C 31.640625 33.75 31.539062 33.878906 31.410156 33.980469 C 31.136719 34.183594 30.804688 34.285156 30.464844 34.269531 L 28.085938 34.269531 L 28.085938 42.71875 C 28.097656 42.898438 28.070312 43.078125 28.007812 43.246094 C 27.941406 43.414062 27.84375 43.566406 27.71875 43.695312 C 27.597656 43.820312 27.453125 43.917969 27.292969 43.980469 C 27.132812 44.042969 26.960938 44.074219 26.785156 44.066406 C 26.484375 44.074219 26.191406 43.976562 25.953125 43.792969 C 25.726562 43.613281 25.570312 43.355469 25.519531 43.070312 C 25.503906 42.953125 25.503906 42.835938 25.519531 42.71875 Z M 25.503906 34.269531 "/>
<path style=" stroke:none;fill-rule:nonzero;fill:rgb(99.607843%,89.803922%,0%);fill-opacity:1;" d="M 32.507812 32.617188 C 32.578125 32.351562 32.742188 32.125 32.972656 31.972656 C 33.214844 31.835938 33.492188 31.769531 33.773438 31.78125 L 34.382812 31.78125 C 34.683594 31.769531 34.976562 31.84375 35.234375 31.992188 C 35.511719 32.175781 35.703125 32.457031 35.78125 32.777344 L 38.992188 41.851562 C 39.078125 42.085938 39.144531 42.328125 39.203125 42.574219 C 39.207031 42.675781 39.207031 42.777344 39.203125 42.878906 C 39.207031 43.035156 39.179688 43.191406 39.117188 43.335938 C 39.054688 43.476562 38.964844 43.609375 38.847656 43.710938 C 38.734375 43.828125 38.601562 43.917969 38.453125 43.980469 C 38.304688 44.039062 38.144531 44.070312 37.980469 44.066406 C 37.734375 44.089844 37.484375 44.03125 37.277344 43.898438 C 37.066406 43.761719 36.90625 43.5625 36.824219 43.328125 L 36.152344 41.351562 L 31.929688 41.351562 L 31.253906 43.328125 C 31.171875 43.566406 31.011719 43.773438 30.800781 43.90625 C 30.585938 44.042969 30.332031 44.097656 30.082031 44.066406 C 29.808594 44.074219 29.542969 43.988281 29.328125 43.824219 C 29.113281 43.65625 28.972656 43.417969 28.925781 43.152344 C 28.917969 43.058594 28.917969 42.96875 28.925781 42.878906 C 28.898438 42.71875 28.898438 42.554688 28.925781 42.394531 C 28.925781 42.21875 29.039062 42.027344 29.101562 41.851562 Z M 34.113281 34.71875 L 32.585938 39.539062 L 35.621094 39.539062 Z M 34.113281 34.71875 "/>
<path style=" stroke:none;fill-rule:nonzero;fill:rgb(99.607843%,89.803922%,0%);fill-opacity:1;" d="M 39.570312 33.132812 C 39.554688 32.769531 39.679688 32.417969 39.921875 32.152344 C 40.046875 32.027344 40.195312 31.929688 40.359375 31.867188 C 40.519531 31.804688 40.695312 31.773438 40.871094 31.78125 C 41.171875 31.777344 41.464844 31.875 41.707031 32.054688 C 41.929688 32.242188 42.078125 32.503906 42.121094 32.792969 C 42.140625 32.90625 42.140625 33.019531 42.121094 33.132812 L 42.121094 41.578125 L 46.539062 41.578125 C 46.84375 41.574219 47.144531 41.65625 47.40625 41.820312 C 47.523438 41.890625 47.625 41.988281 47.699219 42.097656 C 47.777344 42.214844 47.832031 42.339844 47.855469 42.476562 C 47.855469 42.476562 47.855469 42.636719 47.855469 42.71875 C 47.863281 42.878906 47.832031 43.035156 47.765625 43.183594 C 47.699219 43.328125 47.597656 43.453125 47.46875 43.554688 C 47.191406 43.753906 46.851562 43.863281 46.507812 43.859375 L 41.078125 43.859375 C 40.734375 43.878906 40.390625 43.789062 40.097656 43.601562 C 39.839844 43.40625 39.667969 43.117188 39.617188 42.796875 C 39.605469 42.621094 39.605469 42.445312 39.617188 42.269531 Z M 39.570312 33.132812 "/>
<path style=" stroke:none;fill-rule:nonzero;fill:rgb(99.607843%,89.803922%,0%);fill-opacity:1;" d="M 48.144531 33.132812 C 48.136719 32.773438 48.261719 32.421875 48.496094 32.152344 C 48.738281 31.933594 49.046875 31.804688 49.371094 31.785156 C 49.695312 31.769531 50.019531 31.863281 50.28125 32.054688 C 50.507812 32.242188 50.664062 32.503906 50.714844 32.792969 C 50.722656 32.90625 50.722656 33.019531 50.714844 33.132812 L 50.714844 37.066406 L 54.777344 32.375 C 54.933594 32.214844 55.097656 32.066406 55.273438 31.925781 C 55.441406 31.828125 55.628906 31.777344 55.820312 31.78125 C 56.101562 31.78125 56.375 31.863281 56.605469 32.023438 C 56.714844 32.097656 56.808594 32.191406 56.882812 32.300781 C 56.953125 32.414062 57.003906 32.535156 57.023438 32.664062 C 57.03125 32.699219 57.03125 32.730469 57.023438 32.761719 C 57.015625 32.800781 57.015625 32.835938 57.023438 32.875 C 57.023438 33.042969 56.980469 33.210938 56.894531 33.355469 C 56.8125 33.511719 56.707031 33.65625 56.589844 33.789062 L 53.925781 36.710938 L 57.136719 41.691406 L 57.136719 41.851562 C 57.304688 42.082031 57.433594 42.335938 57.523438 42.605469 L 57.523438 42.6875 C 57.542969 42.871094 57.515625 43.058594 57.445312 43.234375 C 57.375 43.40625 57.261719 43.558594 57.121094 43.679688 C 56.851562 43.882812 56.527344 43.992188 56.191406 43.988281 C 55.96875 43.996094 55.746094 43.945312 55.546875 43.84375 C 55.332031 43.699219 55.15625 43.503906 55.035156 43.28125 L 52.046875 38.460938 L 50.617188 39.957031 L 50.617188 42.636719 C 50.628906 42.996094 50.5 43.347656 50.265625 43.617188 C 50.136719 43.742188 49.988281 43.839844 49.820312 43.902344 C 49.65625 43.964844 49.476562 43.992188 49.300781 43.988281 C 49.003906 43.992188 48.714844 43.894531 48.480469 43.714844 C 48.253906 43.53125 48.101562 43.277344 48.046875 42.992188 C 48.03125 42.875 48.03125 42.753906 48.046875 42.636719 Z M 48.144531 33.132812 "/>
</g>
</svg>
