<?xml version="1.0" encoding="UTF-8"?>
<svg xmlns="http://www.w3.org/2000/svg" xmlns:xlink="http://www.w3.org/1999/xlink" width="80" height="80" viewBox="0 0 80 80" version="1.1">
<g id="surface1">
<path style=" stroke:none;fill-rule:nonzero;fill:rgb(1.176471%,78.039216%,35.294118%);fill-opacity:1;" d="M 72 80 L 8 80 C 3.601562 80 0 76.398438 0 72 L 0 8 C 0 3.601562 3.601562 0 8 0 L 72 0 C 76.398438 0 80 3.601562 80 8 L 80 72 C 80 76.398438 76.398438 80 72 80 Z M 72 80 "/>
<path style=" stroke:none;fill-rule:nonzero;fill:rgb(100%,100%,100%);fill-opacity:1;" d="M 45.398438 41 L 34 24.800781 L 24.601562 24.800781 L 24.601562 55.199219 L 34.601562 55.199219 L 34.601562 39 L 46 55.199219 L 55.398438 55.199219 L 55.398438 24.800781 L 45.398438 24.800781 Z M 45.398438 41 "/>
</g>
</svg>
